<?xml version="1.0" encoding="UTF-8" standalone="no"?>
<!-- Created with Inkscape (http://www.inkscape.org/) -->

<svg
   xmlns:dc="http://purl.org/dc/elements/1.1/"
   xmlns:cc="http://creativecommons.org/ns#"
   xmlns:rdf="http://www.w3.org/1999/02/22-rdf-syntax-ns#"
   xmlns:svg="http://www.w3.org/2000/svg"
   xmlns="http://www.w3.org/2000/svg"
   xmlns:sodipodi="http://sodipodi.sourceforge.net/DTD/sodipodi-0.dtd"
   xmlns:inkscape="http://www.inkscape.org/namespaces/inkscape"
   width="210mm"
   height="210mm"
   viewBox="0 0 210 210"
   version="1.1"
   id="svg8"
   inkscape:version="0.92.4 (5da689c313, 2019-01-14)"
   sodipodi:docname="Chetro_Logo.svg"
   inkscape:export-filename="C:\Users\takuy\Desktop\#研究\情報研究\情報研究_計算機工学\N.TRON\Chetro_Logo.png"
   inkscape:export-xdpi="247.71046"
   inkscape:export-ydpi="247.71046">
  <defs
     id="defs2" />
  <sodipodi:namedview
     id="base"
     pagecolor="#ffffff"
     bordercolor="#666666"
     borderopacity="1.0"
     inkscape:pageopacity="0.0"
     inkscape:pageshadow="2"
     inkscape:zoom="1"
     inkscape:cx="366.53148"
     inkscape:cy="414.28333"
     inkscape:document-units="mm"
     inkscape:current-layer="g4910"
     showgrid="false"
     inkscape:window-width="1842"
     inkscape:window-height="1051"
     inkscape:window-x="1669"
     inkscape:window-y="-9"
     inkscape:window-maximized="1" />
  <metadata
     id="metadata5">
    <rdf:RDF>
      <cc:Work
         rdf:about="">
        <dc:format>image/svg+xml</dc:format>
        <dc:type
           rdf:resource="http://purl.org/dc/dcmitype/StillImage" />
        <dc:title />
      </cc:Work>
    </rdf:RDF>
  </metadata>
  <g
     inkscape:groupmode="layer"
     id="layer3"
     inkscape:label="十"
     style="display:inline" />
  <g
     inkscape:groupmode="layer"
     id="layer4"
     inkscape:label="シグマ"
     style="display:inline" />
  <g
     inkscape:label="桜一枚"
     id="g4662"
     inkscape:groupmode="layer"
     style="display:inline">
    <g
       id="g4910"
       transform="translate(-2.645834,8.7312489)">
      <path
         transform="scale(0.26458333)"
         id="path4871"
         d="m 394.52148,194.67969 c 0.35508,24.11792 0.54688,52.2703 0.54688,85.14062 v 72.5918 H 324.0957 v 0.42578 h -28.1582 v 16.60156 h 99.12891 c -0.43457,119.3627 -1.30107,211.78406 -2.60157,277.24219 -0.37204,18.78758 -0.50518,25.85731 -0.55859,29.01953 h 49.05859 c 3e-5,-0.0159 0.002,-0.031 0.002,-0.0469 l -2.59965,-306.082 H 444 476 633.45703 c 6.29341,0 9.43945,-2.38781 9.43945,-7.16211 0,-3.90626 -6.40124,-11.06771 -19.20507,-21.48438 -25.60763,-19.96528 -39.93058,-29.94726 -42.96875,-29.94726 -2.82119,0 -16.60222,13.99739 -41.3418,41.99218 H 476 v -0.55859 H 452.71094 444 438.36328 V 194.67969 Z"
         style="font-style:normal;font-weight:normal;font-size:40px;line-height:1.25;font-family:sans-serif;letter-spacing:0px;word-spacing:0px;display:inline;fill:#ffcc00;fill-opacity:1;stroke:none;stroke-width:0.99999994"
         inkscape:connector-curvature="0" />
      <path
         transform="scale(0.26458333)"
         inkscape:connector-curvature="0"
         id="path4865"
         d="m 202.18945,86.632812 -32.89062,26.451168 126.63867,256.35547 -22.03125,39.3418 -0.004,0.006 -132.2832,248.61914 h 1.02148 c -0.71852,0.70127 -1.39741,1.35168 -2.11132,2.04687 l -16.09375,30.24805 H 528 v -0.33594 h 87.13281 c 13.73242,-41.22553 25.30491,-81.32075 34.71094,-120.27929 0,-5.24848 -4.67451,-7.87305 -14.02344,-7.87305 -6.67782,0 -10.85203,2.33271 -12.52148,6.99805 -13.35564,33.82348 -30.71691,58.60808 -52.08594,74.35351 -9.01504,6.12325 -19.53263,10.06104 -31.55273,11.81055 -11.55221,1.87691 -32.06577,2.95967 -60.69532,3.32617 v 0.50781 H 194.53516 l 0.84375,-0.8789 h -27.83985 l 102.2793,-200.17383 c 7.11815,-13.73012 16.01611,-30.52964 26.69336,-50.39453 10.49928,-19.57278 18.15228,-34.17804 22.95703,-43.81836 -9.25361,-16.0672 -25.80457,-47.17746 -49.65039,-93.33398 L 192.1582,119.92969 h 8.16407 l -5.28516,-7.09961 34.28516,-25.519533 c -9.07849,-0.210477 -18.13088,-0.432382 -27.13282,-0.677735 z"
         style="font-style:normal;font-weight:normal;font-size:40px;line-height:1.25;font-family:sans-serif;letter-spacing:0px;word-spacing:0px;display:inline;fill:#008000;fill-opacity:1;stroke:none;stroke-width:1.43779087" />
      <path
         inkscape:connector-curvature="0"
         id="flowRoot4781"
         d="m 113.86285,1.7115234 c -23.059224,0 -45.010929,8.4257296 -65.856439,25.2687426 -0.028,-0.01992 -0.05618,-0.03897 -0.08419,-0.05891 l -0.305681,0.376722 c -0.381988,0.310771 -0.764075,0.618389 -1.145316,0.934825 l 0.193805,0.239263 -1.647626,2.033468 c 21.302051,17.681014 43.766281,26.521378 67.392187,26.521378 20.08104,0 39.07708,-6.191477 56.99113,-18.557007 l -3.70829,-4.30258 c -0.005,0.0031 -0.0109,0.0062 -0.0163,0.0093 l -4.188,-4.887042 10.8802,-7.799524 -0.031,-0.02222 0.1147,-0.08268 C 154.07073,8.2736051 134.54168,1.7115234 113.86285,1.7115234 Z m 0,8.6015426 c 17.40915,0 33.83791,4.03055 49.29034,12.077815 l -8.35,5.985681 6.84985,7.992793 c -15.43883,8.031448 -31.85183,12.056112 -49.24345,12.056112 -21.234395,0 -41.297558,-6.193512 -60.190883,-18.572509 C 71.53574,16.829717 92.082904,10.313066 113.86285,10.313066 Z"
         style="font-style:normal;font-variant:normal;font-weight:normal;font-stretch:normal;font-size:40.00025558px;line-height:1.25;font-family:TPMincho-GT02;-inkscape-font-specification:'TPMincho-GT02, Normal';font-variant-ligatures:normal;font-variant-caps:normal;font-variant-numeric:normal;font-feature-settings:normal;text-align:start;letter-spacing:0px;word-spacing:0px;writing-mode:lr-tb;text-anchor:start;fill:#ffaaaa;fill-opacity:1;stroke:none;stroke-width:4.13000536" />
    </g>
  </g>
</svg>
