<?xml version="1.0" encoding="UTF-8" standalone="no"?>
<!-- Created with Inkscape (http://www.inkscape.org/) -->

<svg
   xmlns:dc="http://purl.org/dc/elements/1.1/"
   xmlns:cc="http://creativecommons.org/ns#"
   xmlns:rdf="http://www.w3.org/1999/02/22-rdf-syntax-ns#"
   xmlns:svg="http://www.w3.org/2000/svg"
   xmlns="http://www.w3.org/2000/svg"
   xmlns:sodipodi="http://sodipodi.sourceforge.net/DTD/sodipodi-0.dtd"
   xmlns:inkscape="http://www.inkscape.org/namespaces/inkscape"
   width="210mm"
   height="210mm"
   viewBox="0 0 210 210"
   version="1.1"
   id="svg8"
   inkscape:version="0.92.4 (5da689c313, 2019-01-14)"
   sodipodi:docname="Cycrox_Logo.svg"
   inkscape:export-filename="D:\ResDev\_EEICT\CompEng\OS\TRON\Chetro\org.dev-pack.chetro\assets\logos\Cycrox_Logo.png"
   inkscape:export-xdpi="979.40002"
   inkscape:export-ydpi="979.40002">
  <defs
     id="defs2" />
  <sodipodi:namedview
     id="base"
     pagecolor="#ffffff"
     bordercolor="#666666"
     borderopacity="1.0"
     inkscape:pageopacity="0.0"
     inkscape:pageshadow="2"
     inkscape:zoom="0.70710678"
     inkscape:cx="488.00011"
     inkscape:cy="279.38964"
     inkscape:document-units="px"
     inkscape:current-layer="layer1"
     showgrid="false"
     inkscape:window-width="1822"
     inkscape:window-height="1051"
     inkscape:window-x="1689"
     inkscape:window-y="-9"
     inkscape:window-maximized="1" />
  <metadata
     id="metadata5">
    <rdf:RDF>
      <cc:Work
         rdf:about="">
        <dc:format>image/svg+xml</dc:format>
        <dc:type
           rdf:resource="http://purl.org/dc/dcmitype/StillImage" />
        <dc:title></dc:title>
      </cc:Work>
    </rdf:RDF>
  </metadata>
  <g
     inkscape:label="レイヤー 1"
     inkscape:groupmode="layer"
     id="layer1"
     transform="translate(0,-87)">
    <path
       style="fill:#4049c8;stroke-width:0.21166667"
       d="m 173.59976,123.94503 c -1.32411,-0.0148 -2.63395,0.16419 -3.78894,0.5519 -3.34378,1.12246 -5.72143,3.36382 -6.72049,6.33502 -0.67723,2.014 -0.35756,5.4755 0.64955,7.03626 0.23532,0.36464 0.61886,0.22964 -2.19004,2.29598 l 2.28669,-1.65416 1.39938,1.3994 c 0.76975,0.76976 1.35663,1.43617 1.30381,1.48104 -0.0103,0.009 -1.46584,1.01972 -1.75598,1.22267 0.27821,-0.19121 0.95385,-0.66011 1.03767,-0.71572 l 0.8909,-0.59118 1.2418,0.62529 c 1.95514,0.98457 3.31592,1.29811 5.63427,1.29811 1.67177,0 2.41189,-0.10682 3.67007,-0.52917 4.48495,-1.50556 7.07088,-4.8345 7.07088,-9.10177 0,-3.37346 -1.5744,-6.09752 -4.64468,-8.03568 -1.63187,-1.03015 -3.87805,-1.59326 -6.08489,-1.61799 z"
       id="path843"
       inkscape:connector-curvature="0" />
    <path
       style="fill:#040404;stroke-width:0.39241818"
       d="m 56.611738,238.38359 c -2.91889,0.002 -3.919865,0.17257 -5.561491,0.93695 -5.363908,2.49763 -7.917268,7.8658 -7.533168,15.84239 0.158029,3.28232 0.376407,4.308 1.365224,6.4141 1.604387,3.41723 2.873738,4.80098 5.697536,6.21204 2.181151,1.08988 2.749109,1.19947 6.192847,1.19947 4.850552,0 7.044321,-0.71535 9.297911,-3.03414 1.688389,-1.73726 3.266945,-5.51458 3.266945,-7.81771 0,-0.91965 -0.09322,-0.95503 -2.253337,-0.84211 l -2.253333,0.11791 -0.25581,1.80402 c -0.141101,0.99215 -0.530751,2.33488 -0.866076,2.98331 -0.892193,1.72533 -3.174052,3.5719 -4.786431,3.87441 -5.593084,1.04929 -9.804315,-2.57618 -10.804908,-9.30364 -1.245239,-8.37249 2.803645,-15.64307 8.710605,-15.64307 3.238617,0 6.444934,2.93187 7.208387,6.59137 l 0.270172,1.29336 2.220763,-0.11613 2.221722,-0.11674 -0.130265,-1.37385 c -0.331448,-3.49457 -3.312986,-7.27615 -6.625876,-8.40504 -1.13903,-0.38805 -3.15522,-0.61881 -5.381376,-0.61692 z m 35.606033,10.57305 c -0.196467,-0.004 -0.402742,-0.001 -0.609356,0.008 -0.826458,0.0666 -1.659243,0.31277 -1.894074,0.68979 -0.235228,0.37772 -1.534311,3.42423 -2.88754,6.76957 -3.329999,8.23206 -3.256799,8.23477 -6.694889,-0.27492 -1.464971,-3.62595 -2.859667,-6.72223 -3.099293,-6.88078 -0.610226,-0.40374 -3.287882,-0.37191 -3.543826,0.0422 -0.116311,0.18827 1.556589,4.54928 3.717244,9.69166 2.160594,5.14234 4.022701,9.72816 4.138774,10.19077 0.141159,0.56214 -0.143672,1.26384 -0.860317,2.1154 -0.99399,1.18134 -1.197154,1.25589 -2.774556,1.01935 l -1.70147,-0.25438 v 1.33172 c 0,0.73268 0.117585,1.45034 0.261573,1.59418 0.451035,0.45105 4.597651,0.27339 5.613187,-0.24048 0.533096,-0.26971 1.342312,-1.04397 1.798282,-1.72062 1.208278,-1.79293 10.064825,-23.23248 9.784585,-23.68595 -0.158112,-0.25577 -0.659065,-0.38284 -1.248324,-0.40241 z m 41.771059,0.0207 c -1.94589,0.002 -3.93336,0.6691 -5.83364,1.95446 -1.57312,1.06409 -1.76284,1.10775 -2.21117,0.50965 -0.26974,-0.35993 -0.49047,-0.97386 -0.49047,-1.36422 0,-0.57974 -0.32362,-0.70994 -1.76569,-0.70994 h -1.76665 v 9.61405 9.61503 h 1.76665 1.76569 v -4.22119 c 0,-2.32162 0.1724,-4.82246 0.38322,-5.55771 1.01251,-3.53038 4.6749,-6.70348 7.73817,-6.70348 h 1.68904 v -1.56927 c 0,-1.50985 -0.0487,-1.56921 -1.27515,-1.56738 z m 14.02777,0.003 c -1.62837,7e-5 -3.25575,0.24142 -4.31598,0.72428 -1.96164,0.89341 -4.25393,3.39589 -4.94262,5.39673 -0.92964,2.70083 -0.70247,6.31607 0.55757,8.88205 1.02752,2.0925 3.00809,3.97026 4.9742,4.71655 0.32375,0.12291 1.97671,0.23815 3.6742,0.25481 2.63658,0.0264 3.36697,-0.12212 5.01055,-1.01645 4.28559,-2.33256 6.12038,-8.3251 4.07364,-13.30449 -0.75147,-1.82824 -2.95135,-4.12988 -4.71072,-4.9292 -1.06277,-0.48279 -2.69244,-0.72432 -4.32084,-0.72428 z m -40.64531,0.20311 c -3.07576,-0.008 -3.53241,0.0874 -5.28753,1.17267 -2.811714,1.73833 -4.169008,4.14002 -4.403195,7.78895 -0.348187,5.42551 2.103788,9.52163 6.489905,10.84229 3.33048,1.00283 8.19371,0.005 10.22908,-2.09138 1.22255,-1.26141 2.62396,-4.64 2.12974,-5.13425 -0.12764,-0.12763 -1.04764,-0.23183 -2.04349,-0.23183 -1.77529,0 -1.8213,0.0318 -2.38653,1.65456 -1.54924,4.44723 -7.26313,4.56056 -9.51925,0.18875 -0.98325,-1.90529 -1.04078,-5.85225 -0.11386,-7.80527 1.68329,-3.54734 5.20638,-4.89134 7.58204,-2.89237 0.67994,0.57219 1.34612,1.38568 1.48019,1.80788 0.20242,0.63775 0.60376,0.76736 2.37496,0.76736 2.46158,0 2.54911,-0.20039 1.13435,-2.61454 -1.48991,-2.54233 -3.46897,-3.43389 -7.66633,-3.45282 z m 68.3177,0.18107 -1.80881,2.72092 c -2.6116,3.92751 -2.58479,3.92899 -5.55762,-0.36599 -1.45589,-2.10339 -1.54595,-2.16165 -3.54194,-2.27733 -1.12644,-0.0653 -2.04734,-0.007 -2.04734,0.11602 0,0.12881 1.3429,2.17574 2.98434,4.54975 1.81505,2.62512 2.91396,4.58463 2.80514,5.00108 -0.0985,0.37654 -1.52984,2.56048 -3.18071,4.85247 -1.6509,2.29204 -3.00155,4.27167 -3.00155,4.39939 0,0.1279 0.88157,0.23282 1.95919,0.23282 h 1.95917 l 2.15853,-2.91823 c 1.18691,-1.60493 2.30999,-3.01231 2.49573,-3.12708 0.52223,-0.32276 1.35556,0.51641 3.37424,3.39631 l 1.85668,2.649 h 2.15087 2.15082 l -2.02821,-2.84539 c -1.1152,-1.56478 -2.65715,-3.77877 -3.42694,-4.91958 l -1.3997,-2.07424 2.81573,-4.0832 c 3.76266,-5.45739 3.72617,-5.30667 1.28373,-5.30667 z m -27.80842,2.17483 c 1.32118,-0.0605 2.63459,0.60498 3.82359,1.95919 3.35106,3.8166 2.31501,10.33634 -1.99948,12.58108 -0.58282,0.30333 -1.37724,0.55077 -1.76569,0.54997 -0.93003,-0.001 -3.29925,-1.46202 -4.04199,-2.49091 -2.91624,-4.03968 -1.50455,-10.55381 2.66434,-12.29562 0.43777,-0.18292 0.87884,-0.2836 1.31923,-0.30371 z"
       id="path882"
       inkscape:connector-curvature="0" />
    <path
       style="fill:#040404;stroke-width:0.21166666"
       d="m 97.565108,120.82842 c -0.32575,0 -49.355306,29.23285 -50.651172,30.19971 l -0.68781,0.51366 v 30.33045 c 0,29.41898 0.01184,30.34124 0.397907,30.69063 0.218916,0.19811 11.673035,7.11326 25.453225,15.36702 13.780191,8.25377 25.226343,15.01272 25.436174,15.01872 0.35261,0.0107 49.959978,-29.50145 50.789148,-30.21521 0.34942,-0.30082 0.37052,-1.97565 0.37052,-29.59044 v -29.27108 l 4.18011,-2.9099 c 2.29923,-1.60059 6.35799,-4.42836 9.0196,-6.28334 l 4.8395,-3.3724 -1.27486,-1.27486 -1.27434,-1.27434 -7.97988,5.77226 c -4.38899,3.1748 -8.14907,5.81644 -8.35556,5.87044 -0.2365,0.0618 -9.54709,-5.39206 -25.1566,-14.73657 -13.62951,-8.15919 -24.927051,-14.83475 -25.105962,-14.83475 z m 0.446484,4.44986 c 0.214842,0.003 10.963118,6.31581 23.885368,14.0286 l 23.4952,14.02292 v 28.3564 28.35589 l -23.4952,14.02241 c -12.92225,7.71218 -23.6856,14.02168 -23.918441,14.02085 -0.37079,-0.001 -46.484277,-27.36564 -47.38367,-28.11819 -0.318582,-0.26658 -0.347266,-2.59616 -0.347266,-28.27785 0,-26.39138 0.02123,-28.00507 0.37052,-28.3068 0.813906,-0.70308 47.02965,-28.10923 47.393489,-28.10423 z m -49.183043,85.16431 c 0.03836,-0.0169 0.09114,-0.01 0.149346,0.0264 0.116417,0.0719 0.211355,0.17298 0.211355,0.22428 0,0.0513 -0.09494,0.0935 -0.211355,0.0935 -0.116419,0 -0.211875,-0.10098 -0.211875,-0.22427 2e-6,-0.0616 0.02416,-0.10298 0.06253,-0.11989 z"
       id="path839"
       inkscape:connector-curvature="0" />
  </g>
</svg>
