<?xml version="1.0" encoding="UTF-8" standalone="no"?>
<!-- Created with Inkscape (http://www.inkscape.org/) -->

<svg
   xmlns:dc="http://purl.org/dc/elements/1.1/"
   xmlns:cc="http://creativecommons.org/ns#"
   xmlns:rdf="http://www.w3.org/1999/02/22-rdf-syntax-ns#"
   xmlns:svg="http://www.w3.org/2000/svg"
   xmlns="http://www.w3.org/2000/svg"
   xmlns:sodipodi="http://sodipodi.sourceforge.net/DTD/sodipodi-0.dtd"
   xmlns:inkscape="http://www.inkscape.org/namespaces/inkscape"
   width="210mm"
   height="210mm"
   viewBox="0 0 210 210"
   version="1.1"
   id="svg8"
   inkscape:version="0.92.4 (5da689c313, 2019-01-14)"
   sodipodi:docname="IresChasc_Logo.svg">
  <defs
     id="defs2" />
  <sodipodi:namedview
     id="base"
     pagecolor="#ffffff"
     bordercolor="#666666"
     borderopacity="1.0"
     inkscape:pageopacity="0.0"
     inkscape:pageshadow="2"
     inkscape:zoom="0.25"
     inkscape:cx="79.740735"
     inkscape:cy="273.01365"
     inkscape:document-units="mm"
     inkscape:current-layer="layer1"
     showgrid="false"
     inkscape:showpageshadow="false"
     inkscape:window-width="1503"
     inkscape:window-height="1251"
     inkscape:window-x="89"
     inkscape:window-y="71"
     inkscape:window-maximized="1" />
  <metadata
     id="metadata5">
    <rdf:RDF>
      <cc:Work
         rdf:about="">
        <dc:format>image/svg+xml</dc:format>
        <dc:type
           rdf:resource="http://purl.org/dc/dcmitype/StillImage" />
        <dc:title></dc:title>
      </cc:Work>
    </rdf:RDF>
  </metadata>
  <g
     inkscape:label="レイヤー 1"
     inkscape:groupmode="layer"
     id="layer1"
     transform="translate(0,-87)">
    <path
       style="opacity:1;fill:#157705;fill-opacity:1;stroke:none;stroke-width:5.78521538;stroke-linecap:round;stroke-linejoin:round;stroke-miterlimit:4;stroke-dasharray:none;stroke-dashoffset:53.70708847;stroke-opacity:1;paint-order:normal"
       d="M 334.33008 58.484375 L 325.41211 75.4375 C 389.90254 89.8725 435.55088 115.71407 470.89062 163.58398 L 395.24023 163.58398 L 189.3125 78.216797 C 123.53325 58.703197 109.43913 77.492603 104.38086 163.58398 L 41.355469 163.58398 L 41.355469 184.45117 L 103.35547 184.45117 L 103.35547 397.81836 L 103.05664 398.22266 C 103.16017 398.77344 103.25254 399.28126 103.35547 399.83008 L 103.35547 563.80859 C 73.220428 588.73819 76.386455 654.7525 150.65039 773.26172 L 165.80469 737.91406 C 145.14353 695.54196 130.81275 660.39198 124.22266 633.82422 L 124.22266 586.87695 C 129.91254 577.21554 141.64051 574.14005 160.20508 578.42188 L 158.93945 575.88867 C 180.66764 601.52253 213.14897 617.46781 265.65039 623.56836 L 265.33008 623.32031 L 558.07617 623.32031 L 590.05469 687.68164 L 602.87109 688.03516 L 686.63086 574.00977 L 686.63281 574.01172 C 759.11126 462.13725 752.44903 403.92621 669.50586 327.32422 L 669.47852 327.34961 C 656.51038 313.04598 644.50671 300.30525 634.62305 287.7793 L 704.26562 269.82422 L 699.05664 249.61719 L 621.85156 269.52148 C 607.79689 245.90499 603.11265 220.57041 615.375 184.45117 L 750.48242 184.45117 L 750.48242 163.58398 L 623.8125 163.58398 C 630.92973 148.21718 640.69074 131.05565 653.54492 111.57812 L 639.3418 95.185547 C 622.97341 120.45105 610.64491 142.96932 602.29883 163.58398 L 489.13477 163.58398 C 452.73142 99.7687 386.4321 66.69697 334.33008 58.484375 z M 151.9043 93.28125 C 159.2271 93.44001 168.76707 95.390786 181.32227 97.494141 L 340.75 163.58398 L 125.30469 163.58398 C 128.52023 105.66573 132.13485 92.852644 151.9043 93.28125 z M 124.22266 184.45117 L 140.22266 184.45117 C 210.99319 296.05683 210.62352 376.57398 124.22266 338.03125 L 124.22266 184.45117 z M 159.95508 184.45117 L 268.87305 184.45117 L 256.87109 195.5918 C 272.47023 220.24851 319.22604 291.12478 250.55469 365.61719 L 237.35352 325.09961 L 219.38281 337.29883 L 292.32422 561.16797 L 312.97266 602.45312 L 237.54492 602.45312 C 141.15715 577.34231 125.75876 416.69081 124.50195 369.18359 L 124.22266 369.5625 L 124.22266 353.46289 C 202.44013 384.2739 248.58163 331.62198 159.95508 184.45117 z M 269.24805 184.45117 L 384.22266 184.45117 L 384.22266 366.45117 L 270.63672 366.45117 C 309.79436 319.44948 321.78874 254.99062 269.24805 184.45117 z M 405.08789 184.45117 L 595.03516 184.45117 C 585.41904 217.93889 587.7008 246.59831 601.73828 274.70703 L 534.2168 292.11523 L 539.42578 312.32031 L 612.81445 293.40039 C 623.61241 309.14936 638.09887 325.02547 656.24805 341.78711 L 656.27539 341.76172 C 712.99918 404.31881 752.14482 436.5836 674.20703 555.67188 L 598.78125 658.35547 L 571.00586 602.45312 L 562.69531 602.45312 L 533.80664 602.45312 L 439.44336 440.44531 L 422.01953 452.27344 L 509.69336 602.45312 L 435.98438 602.45312 L 405.08789 544.24023 L 405.08789 184.45117 z M 257.625 387.31836 L 384.22266 387.31836 L 384.22266 518.25781 L 372 526.55469 L 412.35742 602.45312 L 336.28125 602.45312 L 312.16406 554.70508 L 257.625 387.31836 z M 124.22266 501.62695 C 129.32081 520.62099 135.26953 537.47263 143.04883 552.1582 C 136.33628 552.00214 130.02433 552.56651 124.22266 553.89453 L 124.22266 501.62695 z "
       transform="matrix(0.26458333,0,0,0.26458333,0,87)"
       id="rect815" />
    <g
       aria-label="IresChasc"
       transform="matrix(0.26458333,0,0,0.26458333,23.812509,75.887504)"
       style="font-style:normal;font-weight:normal;font-size:170.66665649px;line-height:1.25;font-family:sans-serif;letter-spacing:0px;word-spacing:0px;fill:#c820b8;fill-opacity:1;stroke:none"
       id="flowRoot1291">
      <path
         d="m 174.08333,785.86783 q 3.25,-0.25 5.25,-0.75 2,-0.58333 3.08334,-1.66667 1.16666,-1.16666 1.58333,-3.08333 0.41667,-2 0.41667,-5.16667 v -56.08333 q 0,-2 -0.33334,-3.33333 -0.33333,-1.33333 -1.5,-2.16667 -1.08333,-0.91666 -3.16666,-1.33333 -2.08334,-0.41667 -5.5,-0.58333 l 0.16666,-3 q 1.33334,0 3.25,0.0833 1.91667,0 4.08334,0 2.25,0 4.5,0.0833 2.33333,0 4.33333,0 1.58333,0 3.5,0 2,-0.0833 3.91666,-0.0833 1.91667,0 3.58334,0 1.75,-0.0833 2.91666,-0.0833 l 0.25,2.83333 q -3.25,0.25 -5.25,0.83333 -2,0.5 -3.16666,1.66667 -1.16667,1.08333 -1.58333,3.08333 -0.41667,1.91667 -0.41667,5 v 56.16667 q 0,2 0.33333,3.33333 0.33334,1.33333 1.41667,2.25 1.16667,0.83333 3.25,1.25 2.08333,0.41667 5.58333,0.58333 l -0.16667,3 q -1.33333,0 -3.33333,0 -1.91667,-0.0833 -4.16666,-0.0833 -2.16667,0 -4.41667,0 -2.25,-0.0833 -4.25,-0.0833 -1.66667,0 -3.58333,0.0833 -1.91667,0 -3.83334,0 -1.91666,0 -3.66666,0.0833 -1.66667,0 -2.83334,0 z"
         style="font-style:normal;font-variant:normal;font-weight:normal;font-stretch:normal;font-size:170.66665649px;font-family:'Arabic Typesetting';-inkscape-font-specification:'Arabic Typesetting, Normal';font-variant-ligatures:normal;font-variant-caps:normal;font-variant-numeric:normal;font-feature-settings:normal;text-align:start;writing-mode:lr-tb;text-anchor:start;fill:#c820b8;fill-opacity:1"
         id="path1318" />
      <path
         d="m 240.75,788.70116 q -1.33334,0 -3.25,0 -1.83334,-0.0833 -4,-0.0833 -2.16667,0 -4.41667,0 -2.25,-0.0833 -4.25,-0.0833 -3.25,0 -6.25,0.0833 -3,0.0833 -5.33333,0.0833 L 213,786.0345 q 2.75,-0.25 4.33333,-0.66667 1.66667,-0.5 2.5,-1.58333 0.91667,-1.08334 1.16667,-2.91667 0.33333,-1.91667 0.33333,-5.08333 v -21.58334 q 0,-2.33333 -0.25,-3.66666 -0.25,-1.33333 -1.08333,-2.08333 -0.75,-0.83334 -2.33334,-1.25 -1.58333,-0.41667 -4.24999,-0.83334 l -0.25,-2.33333 q 2.25,-0.41667 4.66666,-0.91667 2.41667,-0.58333 4.66667,-1.16666 2.25,-0.66667 4.16666,-1.25 2,-0.66667 3.25,-1.16667 l 1,0.66667 q -0.41666,2.58333 -0.5,5.16666 -0.0833,2.5 -0.0833,5 2.66667,-3.25 4.83333,-5.33333 2.25,-2.16667 4.08334,-3.33333 1.83333,-1.25 3.33333,-1.66667 1.58333,-0.5 3.08333,-0.5 2.16667,0 4,1.08333 1.83334,1.08334 1.83334,3.58334 0,1.66666 -1.66667,3.66666 -1.66667,2 -4.41667,3.66667 -1.5,-1.33333 -3.16666,-2 -1.58334,-0.75 -3.5,-0.75 -1.91667,0 -4.16667,1.66667 -2.25,1.66666 -3.66667,4.83333 -0.41666,0.91666 -0.5,1.66666 -0.0833,0.66667 -0.0833,1.83334 v 20.41666 q 0,2 0.25,3.25 0.33333,1.16667 1.41667,1.83334 1.08333,0.66666 3.16666,0.91666 2.08334,0.25 5.75,0.41667 z"
         style="font-style:normal;font-variant:normal;font-weight:normal;font-stretch:normal;font-size:170.66665649px;font-family:'Arabic Typesetting';-inkscape-font-specification:'Arabic Typesetting, Normal';font-variant-ligatures:normal;font-variant-caps:normal;font-variant-numeric:normal;font-feature-settings:normal;text-align:start;writing-mode:lr-tb;text-anchor:start;fill:#c820b8;fill-opacity:1"
         id="path1320" />
      <path
         d="m 298.58333,779.45116 q -2.66667,3.5 -5.5,5.66667 -2.83333,2.08333 -5.41667,3.25 -2.58333,1.16667 -4.75,1.58333 -2.16666,0.41667 -3.41666,0.41667 -5.16667,0 -9.5,-1.91667 -4.33333,-1.91666 -7.5,-5.25 -3.08333,-3.33333 -4.83333,-7.75 -1.66667,-4.5 -1.66667,-9.5 0,-5.58333 2,-10.33333 2.08333,-4.83333 5.41667,-8.41666 3.41666,-3.58334 7.83333,-5.58334 4.41667,-2.08333 9.08333,-2.08333 3.75,0 7.08333,1.25 3.41667,1.16667 5.91667,3.41667 2.5,2.25 4,5.41666 1.5,3.16667 1.5,7.08333 v 1.16667 l -0.0833,1.16667 q -0.41667,2.25 -2.33334,2.25 h -31.49999 q 0.0833,5.75 1.75,9.83333 1.66666,4.08333 4.25,6.66667 2.66666,2.58333 5.91666,3.83333 3.25,1.16667 6.41667,1.16667 3.41666,0 6.5,-1.16667 3.08333,-1.16667 6.5,-4.58333 z M 286.25,757.5345 q 1.66666,0 2.16666,-0.58334 0.5,-0.66666 0.5,-2.16666 0,-2.25 -0.75,-4.25 -0.75,-2 -2.16666,-3.5 -1.41667,-1.5 -3.5,-2.33333 -2.08334,-0.83334 -4.66667,-0.83334 -2,0 -4,0.91667 -2,0.91667 -3.75,2.66667 -1.75,1.75 -3.08333,4.33333 -1.25,2.5 -1.75,5.75 z"
         style="font-style:normal;font-variant:normal;font-weight:normal;font-stretch:normal;font-size:170.66665649px;font-family:'Arabic Typesetting';-inkscape-font-specification:'Arabic Typesetting, Normal';font-variant-ligatures:normal;font-variant-caps:normal;font-variant-numeric:normal;font-feature-settings:normal;text-align:start;writing-mode:lr-tb;text-anchor:start;fill:#c820b8;fill-opacity:1"
         id="path1322" />
      <path
         d="m 337.08333,755.36783 q -0.25,-2.58333 -1.33334,-4.75 -1,-2.25 -2.75,-3.83333 -1.66666,-1.58333 -3.91666,-2.41667 -2.25,-0.91666 -4.83334,-0.91666 -1.58333,0 -3.08333,0.5 -1.41667,0.5 -2.58333,1.41666 -1.08334,0.91667 -1.75,2.33334 -0.66667,1.33333 -0.66667,3.08333 0,2.08333 1,3.66666 1.08333,1.5 2.75,2.75 1.75,1.16667 3.91667,2.08334 2.25,0.91666 4.58333,1.83333 2.58333,1.08333 5.08333,2.33333 2.58334,1.16667 4.58334,2.83334 2,1.58333 3.16666,3.83333 1.25,2.25 1.25,5.33333 0,3.91667 -1.66666,6.75 -1.66667,2.75 -4.33334,4.58334 -2.66666,1.83333 -6.08333,2.66666 -3.33333,0.91667 -6.75,0.91667 -2.16667,0 -4.41667,-0.33333 -2.16666,-0.33334 -4.08333,-0.75 -1.75,-0.41667 -3.41667,-0.75 -1.58333,-0.41667 -3.5,-0.58334 -0.0833,-1.41666 -0.33333,-3.58333 -0.16667,-2.16667 -0.41667,-4.41667 -0.25,-2.25 -0.58333,-4.25 -0.25,-2.08333 -0.58333,-3.25 l 2.83333,-0.75 q 1.16667,2.83334 2.58333,5.5 1.41667,2.66667 3.33334,4.75 2,2 4.5,3.25 2.5,1.25 5.91666,1.25 3.25,0 5.75,-1.75 2.5,-1.83333 2.5,-5.5 0,-2.08333 -1,-3.66666 -0.91666,-1.66667 -2.58333,-2.91667 -1.58333,-1.25 -3.66667,-2.16667 -2,-1 -4.25,-1.91666 -2.58333,-1.08334 -5.16666,-2.25 -2.5,-1.25 -4.5,-2.83334 -2,-1.66666 -3.25,-3.91666 -1.25,-2.25 -1.25,-5.41667 0,-3.83333 1.58333,-6.58333 1.66667,-2.75 4.16667,-4.5 2.58333,-1.83333 5.83333,-2.66667 3.25,-0.83333 6.5,-0.83333 3.33333,0 6.58333,0.66667 3.33334,0.66666 7.5,0.83333 -0.25,2.66667 -0.33333,5.08333 -0.0833,2.33334 -0.0833,5.08334 v 4.08333 z"
         style="font-style:normal;font-variant:normal;font-weight:normal;font-stretch:normal;font-size:170.66665649px;font-family:'Arabic Typesetting';-inkscape-font-specification:'Arabic Typesetting, Normal';font-variant-ligatures:normal;font-variant-caps:normal;font-variant-numeric:normal;font-feature-settings:normal;text-align:start;writing-mode:lr-tb;text-anchor:start;fill:#c820b8;fill-opacity:1"
         id="path1324" />
      <path
         d="m 363.25,747.20117 q 0,7.99999 2,15.08333 2,7 6,12.25 4.08333,5.16666 10.16666,8.25 6.08334,3 14.33334,3 4.5,0 8.58333,-1.25 4.16667,-1.25 7.33333,-4.08334 3,-2.66666 5.16667,-6.5 2.25,-3.91666 4.41667,-9.16666 l 3.33333,0.83333 q -1.41667,5.5 -2.25,10.33333 -0.83333,4.83334 -1.41667,10.33334 -6.58333,1.91666 -13.08333,3 -6.41667,1.08333 -12.91667,1.08333 -9.41666,0 -17.41666,-2.91667 -7.91667,-2.91666 -13.75,-8.25 -5.75,-5.33333 -9,-12.83333 -3.25,-7.58333 -3.25,-16.83333 0,-10.66667 3.91667,-18.58333 3.91666,-8 10.58333,-13.33334 6.75,-5.33333 15.58333,-7.91666 8.83333,-2.66667 18.66667,-2.66667 5.08333,0 10.83333,0.75 5.83333,0.75 10.83333,2.08333 -0.5,5.33334 -0.66666,10.16667 -0.0833,4.75 -0.0833,10.08333 l -3.5,0.33334 q -0.33333,-4.91667 -2,-8.5 -1.58333,-3.66667 -4.33333,-6 -2.66667,-2.41667 -6.25,-3.5 Q 401.5,711.2845 397.25,711.2845 q -8.33334,0 -14.66667,2.66667 -6.33333,2.58333 -10.66666,7.33333 -4.25,4.66667 -6.5,11.33333 -2.16667,6.58334 -2.16667,14.58334 z"
         style="font-style:normal;font-variant:normal;font-weight:normal;font-stretch:normal;font-size:170.66665649px;font-family:'Arabic Typesetting';-inkscape-font-specification:'Arabic Typesetting, Normal';font-variant-ligatures:normal;font-variant-caps:normal;font-variant-numeric:normal;font-feature-settings:normal;text-align:start;writing-mode:lr-tb;text-anchor:start;fill:#c820b8;fill-opacity:1"
         id="path1326" />
      <path
         d="m 451.49998,699.2845 q -0.33333,2.08333 -0.58333,4.91667 -0.16667,2.83333 -0.33334,5.66666 -0.0833,2.83334 -0.16666,5.33334 -0.0833,2.5 -0.0833,4 v 27.08333 q 4.25,-2.83333 9.25,-4.75 5,-2 9.75,-2 3,0 5.66667,0.91667 2.66666,0.91666 4.66666,3 2,2 3.16667,5.33333 1.16667,3.25 1.16667,8 v 22.41666 q 0,2 0.16666,3.25 0.25,1.16667 1.08334,1.83334 0.83333,0.66666 2.5,0.91666 1.66666,0.25 4.5,0.41667 l -0.16667,3.08333 q -2.66667,0 -6.16667,-0.0833 -3.41666,-0.0833 -7.41666,-0.0833 -3.25,0 -6.16667,0.0833 -2.91667,0.0833 -5.25,0.0833 l -0.25,-2.66666 q 2.58333,-0.25 4.16667,-0.66667 1.66666,-0.41667 2.5,-1.33333 0.91666,-1 1.16666,-2.75 0.33334,-1.83334 0.33334,-5 v -17.58334 q 0,-6.74999 -3,-9.66666 -3,-2.91667 -7.75,-2.91667 -3.16667,0 -6.75,1.16667 -3.58334,1.08333 -7.16667,3.16667 v 28.74999 q 0,2 0.25,3.25 0.25,1.16667 1.08334,1.83334 0.83333,0.66666 2.41666,0.91666 1.66667,0.25 4.41667,0.41667 l -0.25,3.08333 q -2.66667,0 -6,-0.0833 -3.25,-0.0833 -7.25,-0.0833 -3.25,0 -6.33333,0.0833 -3.08334,0.0833 -5.41667,0.0833 l -0.16667,-2.66666 q 2.75,-0.25 4.33334,-0.75 1.66666,-0.5 2.58333,-1.5 0.91667,-1.08334 1.16667,-2.91667 0.33333,-1.91667 0.33333,-5.08333 v -62.08333 q 0,-2.41667 -0.33333,-3.75 -0.25,-1.41667 -1.16667,-2.16667 -0.83333,-0.75 -2.58333,-1.16667 -1.75,-0.41666 -4.58334,-0.91666 l -0.25,-2.41667 q 2.33334,-0.41667 4.91667,-1 2.66667,-0.58333 5.08333,-1.16667 2.41667,-0.66666 4.5,-1.25 2.16667,-0.66666 3.5,-1.25 z"
         style="font-style:normal;font-variant:normal;font-weight:normal;font-stretch:normal;font-size:170.66665649px;font-family:'Arabic Typesetting';-inkscape-font-specification:'Arabic Typesetting, Normal';font-variant-ligatures:normal;font-variant-caps:normal;font-variant-numeric:normal;font-feature-settings:normal;text-align:start;writing-mode:lr-tb;text-anchor:start;fill:#c820b8;fill-opacity:1"
         id="path1328" />
      <path
         d="m 526.99998,761.7845 q 0.0833,-0.58334 0.0833,-1.41667 v -6.08333 q 0,-4.25 -2.08333,-7 -2,-2.83333 -6.5,-2.83333 -2.41667,0 -4.16667,0.91666 -1.66666,0.83334 -2.83333,2.25 -1.08333,1.41667 -1.66667,3.25 -0.5,1.83334 -0.5,3.83333 -1.33333,1.08334 -3.66666,1.08334 -1.91667,0 -3.66667,-0.83334 -1.66667,-0.91666 -1.66667,-2.66666 0,-1.33333 1,-2.75 1.08334,-1.41667 2.75,-2.75 1.75,-1.41667 3.83334,-2.66667 2.08333,-1.25 4.25,-2.16666 5.58333,-2.41667 10.99999,-2.41667 2.66667,0 5,0.75 2.33334,0.66667 4.08334,2.25 1.75,1.5 2.75,3.91667 1,2.41666 1,5.75 0,4.99999 -0.16667,11.58333 -0.16667,6.5 -0.16667,14.5 0,3.25 1.25,5.08333 1.25,1.83333 3.5,1.83333 2,0 4.33334,-1.41666 l 1.5,2.25 q -1.91667,1.83333 -4.75,3 -2.75,1.16666 -5.58334,1.16666 -2.91666,0 -5.41666,-1.58333 -2.41667,-1.58333 -3.25,-5.41667 -0.83334,0.58334 -2.58334,1.75 -1.75,1.16667 -4,2.41667 -2.25,1.16667 -4.83333,2.08333 -2.58333,0.91667 -4.91666,0.91667 -2.75,0 -5,-1 -2.25,-1 -3.91667,-2.66667 -1.58333,-1.75 -2.5,-3.91666 -0.83333,-2.25 -0.83333,-4.75 0,-4.25 2.41666,-7.25 2.5,-3.08334 6.5,-4.75 2.91667,-1.16667 7.75,-2.33334 4.91667,-1.25 11.66667,-1.91666 z m -0.16667,17.41666 q 0,-3.5 0.0833,-6.83333 0.0833,-3.33333 0.0833,-6.83333 -2.25,0.25 -4.58334,0.66666 -2.25,0.33334 -4.41666,0.91667 -2.16667,0.58333 -4.08333,1.5 -1.91667,0.91667 -3.25,2.16667 -2.08334,1.83333 -2.08334,4.75 0,3.5 1.75,5.91666 1.83334,2.41667 5.58334,2.41667 2.66666,0 5.58333,-1.25 2.91666,-1.25 5.33333,-3.41667 z"
         style="font-style:normal;font-variant:normal;font-weight:normal;font-stretch:normal;font-size:170.66665649px;font-family:'Arabic Typesetting';-inkscape-font-specification:'Arabic Typesetting, Normal';font-variant-ligatures:normal;font-variant-caps:normal;font-variant-numeric:normal;font-feature-settings:normal;text-align:start;writing-mode:lr-tb;text-anchor:start;fill:#c820b8;fill-opacity:1"
         id="path1330" />
      <path
         d="m 580.74997,755.36783 q -0.25,-2.58333 -1.33334,-4.75 -1,-2.25 -2.75,-3.83333 -1.66666,-1.58333 -3.91666,-2.41667 -2.25,-0.91666 -4.83334,-0.91666 -1.58333,0 -3.08333,0.5 -1.41666,0.5 -2.58333,1.41666 -1.08333,0.91667 -1.75,2.33334 -0.66667,1.33333 -0.66667,3.08333 0,2.08333 1,3.66666 1.08334,1.5 2.75,2.75 1.75,1.16667 3.91667,2.08334 2.25,0.91666 4.58333,1.83333 2.58333,1.08333 5.08333,2.33333 2.58334,1.16667 4.58334,2.83334 2,1.58333 3.16666,3.83333 1.25,2.25 1.25,5.33333 0,3.91667 -1.66666,6.75 -1.66667,2.75 -4.33334,4.58334 -2.66666,1.83333 -6.08333,2.66666 -3.33333,0.91667 -6.75,0.91667 -2.16666,0 -4.41666,-0.33333 -2.16667,-0.33334 -4.08334,-0.75 -1.75,-0.41667 -3.41666,-0.75 -1.58334,-0.41667 -3.5,-0.58334 -0.0833,-1.41666 -0.33334,-3.58333 -0.16666,-2.16667 -0.41666,-4.41667 -0.25,-2.25 -0.58334,-4.25 -0.25,-2.08333 -0.58333,-3.25 l 2.83333,-0.75 q 1.16667,2.83334 2.58334,5.5 1.41666,2.66667 3.33333,4.75 2,2 4.5,3.25 2.5,1.25 5.91666,1.25 3.25,0 5.75,-1.75 2.5,-1.83333 2.5,-5.5 0,-2.08333 -1,-3.66666 -0.91666,-1.66667 -2.58333,-2.91667 -1.58333,-1.25 -3.66667,-2.16667 -2,-1 -4.25,-1.91666 -2.58333,-1.08334 -5.16666,-2.25 -2.5,-1.25 -4.5,-2.83334 -2,-1.66666 -3.25,-3.91666 -1.25,-2.25 -1.25,-5.41667 0,-3.83333 1.58333,-6.58333 1.66667,-2.75 4.16667,-4.5 2.58333,-1.83333 5.83333,-2.66667 3.25,-0.83333 6.5,-0.83333 3.33333,0 6.58333,0.66667 3.33334,0.66666 7.5,0.83333 -0.25,2.66667 -0.33333,5.08333 -0.0833,2.33334 -0.0833,5.08334 v 4.08333 z"
         style="font-style:normal;font-variant:normal;font-weight:normal;font-stretch:normal;font-size:170.66665649px;font-family:'Arabic Typesetting';-inkscape-font-specification:'Arabic Typesetting, Normal';font-variant-ligatures:normal;font-variant-caps:normal;font-variant-numeric:normal;font-feature-settings:normal;text-align:start;writing-mode:lr-tb;text-anchor:start;fill:#c820b8;fill-opacity:1"
         id="path1332" />
      <path
         d="m 636.83332,778.11783 q -1.41667,2.91667 -3.66667,5.16667 -2.25,2.25 -5,3.83333 -2.66666,1.58333 -5.66666,2.41667 -3,0.83333 -6,0.83333 -5,0 -9.16667,-1.91667 -4.16666,-2 -7.16666,-5.25 -3,-3.25 -4.66667,-7.5 -1.66667,-4.33333 -1.66667,-9.08333 0,-5.75 2.25,-10.66667 2.33334,-4.91666 6.16667,-8.58333 3.91667,-3.66666 9,-5.75 5.08333,-2.08333 10.75,-2.08333 2.75,0 5.5,0.5 2.83333,0.5 5.5,1.91667 1.16666,0.58333 1.58333,1.58333 0.5,0.91667 0.5,1.83333 0,1.5 -1.16667,3.16667 -1.16666,1.58333 -3.83333,2.91667 h -0.41667 q -3.08333,-3.16667 -5.91666,-4.66667 -2.83334,-1.5 -6.58334,-1.5 -3.49999,0 -6.16666,1.41667 -2.58333,1.41666 -4.33333,3.75 -1.75,2.33333 -2.66667,5.41666 -0.91667,3 -0.91667,6.25 0,4.08333 1.16667,7.83333 1.25,3.75 3.5,6.58334 2.25,2.83333 5.5,4.58333 3.33333,1.66667 7.58333,1.66667 4,0 7.66667,-1.66667 3.66666,-1.66667 5.91666,-5.16667 z"
         style="font-style:normal;font-variant:normal;font-weight:normal;font-stretch:normal;font-size:170.66665649px;font-family:'Arabic Typesetting';-inkscape-font-specification:'Arabic Typesetting, Normal';font-variant-ligatures:normal;font-variant-caps:normal;font-variant-numeric:normal;font-feature-settings:normal;text-align:start;writing-mode:lr-tb;text-anchor:start;fill:#c820b8;fill-opacity:1"
         id="path1334" />
    </g>
  </g>
</svg>
