<?xml version="1.0" encoding="UTF-8" standalone="no"?>
<!-- Created with Inkscape (http://www.inkscape.org/) -->

<svg
   xmlns:dc="http://purl.org/dc/elements/1.1/"
   xmlns:cc="http://creativecommons.org/ns#"
   xmlns:rdf="http://www.w3.org/1999/02/22-rdf-syntax-ns#"
   xmlns:svg="http://www.w3.org/2000/svg"
   xmlns="http://www.w3.org/2000/svg"
   xmlns:sodipodi="http://sodipodi.sourceforge.net/DTD/sodipodi-0.dtd"
   xmlns:inkscape="http://www.inkscape.org/namespaces/inkscape"
   width="210mm"
   height="210mm"
   viewBox="0 0 210 210"
   version="1.1"
   id="svg3801"
   inkscape:version="0.92.4 (5da689c313, 2019-01-14)"
   sodipodi:docname="TransETAD_Logo.svg"
   inkscape:export-filename="D:\ResDev\_EEICT\CompEng\OS\TRON\Chetro\org.dev-pack.chetro\assets\logos\TransETAD_Logo.png"
   inkscape:export-xdpi="247.71001"
   inkscape:export-ydpi="247.71001">
  <defs
     id="defs3795" />
  <sodipodi:namedview
     id="base"
     pagecolor="#ffffff"
     bordercolor="#666666"
     borderopacity="1.0"
     inkscape:pageopacity="0.0"
     inkscape:pageshadow="2"
     inkscape:zoom="0.35"
     inkscape:cx="492.27454"
     inkscape:cy="-102.28518"
     inkscape:document-units="mm"
     inkscape:current-layer="layer1"
     showgrid="false"
     inkscape:window-width="1822"
     inkscape:window-height="1051"
     inkscape:window-x="1689"
     inkscape:window-y="-9"
     inkscape:window-maximized="1" />
  <metadata
     id="metadata3798">
    <rdf:RDF>
      <cc:Work
         rdf:about="">
        <dc:format>image/svg+xml</dc:format>
        <dc:type
           rdf:resource="http://purl.org/dc/dcmitype/StillImage" />
        <dc:title></dc:title>
      </cc:Work>
    </rdf:RDF>
  </metadata>
  <g
     inkscape:label="レイヤー 1"
     inkscape:groupmode="layer"
     id="layer1"
     transform="translate(0,-87)">
    <g
       id="g4984"
       transform="matrix(6,0,0,6,-605.67376,-1190.8987)">
      <path
         inkscape:connector-curvature="0"
         id="path4802"
         d="m 123.43598,216.14289 a 17,17 0 0 0 -5.80306,5.93976 17,17 0 0 0 5.92523,23.0365 l 0.50101,-0.86776 a 16,16 0 0 1 -5.61039,-21.69771 16,16 0 0 1 5.45192,-5.60546 z"
         style="opacity:1;fill:#3c9aff;fill-opacity:1;stroke:none;stroke-width:1.31365633;stroke-linecap:round;stroke-linejoin:miter;stroke-miterlimit:4;stroke-dasharray:none;stroke-dashoffset:53.70708847;stroke-opacity:1;paint-order:normal" />
      <path
         inkscape:connector-curvature="0"
         id="path4346-00"
         d="m 112.89203,244.62451 0.52869,0.91567 a 17,17 0 0 0 6.66944,-6.45753 17,17 0 0 0 -6.22243,-23.22243 17,17 0 0 0 -0.31221,-0.15996 l -0.49636,0.8597 a 16,16 0 0 1 0.25803,0.13704 16,16 0 0 1 5.85643,21.85648 16,16 0 0 1 -6.28159,6.07103 z"
         style="opacity:1;fill:#007afe;fill-opacity:1;stroke:none;stroke-width:1.31365633;stroke-linecap:round;stroke-linejoin:miter;stroke-miterlimit:4;stroke-dasharray:none;stroke-dashoffset:53.70708847;stroke-opacity:1;paint-order:normal" />
      <path
         inkscape:connector-curvature="0"
         id="path4784"
         d="m 124.42246,217.85214 a 14.999999,14.999999 0 0 0 -5.13736,5.25183 14.999999,14.999999 0 0 0 5.24303,20.33515 l 0.50075,-0.86731 a 14,14 0 0 1 -4.92837,-18.99707 14,14 0 0 1 4.78756,-4.91675 z"
         style="opacity:1;fill:#3c9aff;fill-opacity:1;stroke:none;stroke-width:1.31365633;stroke-linecap:round;stroke-linejoin:miter;stroke-miterlimit:4;stroke-dasharray:none;stroke-dashoffset:53.70708847;stroke-opacity:1;paint-order:normal" />
      <path
         inkscape:connector-curvature="0"
         id="path4346-8-6"
         d="m 111.8831,242.87663 0.52806,0.91471 a 14.999999,14.999999 0 0 0 5.86684,-5.68751 14.999999,14.999999 0 0 0 -5.48998,-20.49029 14.999999,14.999999 0 0 0 -0.26009,-0.13345 l -0.49687,0.8606 a 14,14 0 0 1 0.20642,0.10963 14,14 0 0 1 5.12397,19.12434 14,14 0 0 1 -5.47835,5.30197 z"
         style="opacity:1;fill:#007afe;fill-opacity:1;stroke:none;stroke-width:1.31365633;stroke-linecap:round;stroke-linejoin:miter;stroke-miterlimit:4;stroke-dasharray:none;stroke-dashoffset:53.70708847;stroke-opacity:1;paint-order:normal" />
      <path
         inkscape:connector-curvature="0"
         id="path4766"
         d="m 125.40984,219.56191 a 13,13 0 0 0 -4.47185,4.56318 13,13 0 0 0 4.55985,17.63445 l 0.50023,-0.86642 a 12,12 0 0 1 -4.24467,-16.29726 12,12 0 0 1 4.12223,-4.22739 z"
         style="opacity:1;fill:#3c9aff;fill-opacity:1;stroke:none;stroke-width:1.31365633;stroke-linecap:round;stroke-linejoin:miter;stroke-miterlimit:4;stroke-dasharray:none;stroke-dashoffset:53.70708847;stroke-opacity:1;paint-order:normal" />
      <path
         inkscape:connector-curvature="0"
         id="path4346-8-0"
         d="m 110.87454,241.13016 0.52724,0.91305 a 13,13 0 0 0 5.06521,-4.91814 13,13 0 0 0 -4.75868,-17.75821 13,13 0 0 0 -0.20823,-0.10649 l -0.49712,0.86104 a 12,12 0 0 1 0.15481,0.0822 12,12 0 0 1 4.39268,16.39227 12,12 0 0 1 -4.67591,4.53425 z"
         style="opacity:1;fill:#007afe;fill-opacity:1;stroke:none;stroke-width:1.31365633;stroke-linecap:round;stroke-linejoin:miter;stroke-miterlimit:4;stroke-dasharray:none;stroke-dashoffset:53.70708847;stroke-opacity:1;paint-order:normal" />
      <path
         inkscape:connector-curvature="0"
         id="path4748"
         d="m 126.39613,221.27046 a 11,11 0 0 0 -3.80666,3.87613 11,11 0 0 0 3.87809,14.93336 l 0.49971,-0.86552 a 10,10 0 0 1 -3.56239,-13.59707 10,10 0 0 1 3.45832,-3.53841 z"
         style="opacity:1;fill:#3c9aff;fill-opacity:1;stroke:none;stroke-width:1.31365633;stroke-linecap:round;stroke-linejoin:miter;stroke-miterlimit:4;stroke-dasharray:none;stroke-dashoffset:53.70708847;stroke-opacity:1;paint-order:normal" />
      <path
         inkscape:connector-curvature="0"
         id="path4346-0-7"
         d="m 109.86562,239.38229 0.5266,0.91207 a 11,11 0 0 0 4.26235,-4.14767 11,11 0 0 0 -4.02596,-15.02651 11,11 0 0 0 -0.15611,-0.08 l -0.49764,0.86194 a 10,10 0 0 1 0.10321,0.0548 10,10 0 0 1 3.65996,13.66057 10,10 0 0 1 -3.87241,3.76476 z"
         style="opacity:1;fill:#007afe;fill-opacity:1;stroke:none;stroke-width:1.31365633;stroke-linecap:round;stroke-linejoin:miter;stroke-miterlimit:4;stroke-dasharray:none;stroke-dashoffset:53.70708847;stroke-opacity:1;paint-order:normal" />
      <path
         inkscape:connector-curvature="0"
         id="path4730"
         d="m 127.3835,222.98023 a 8.9999999,8.9999999 0 0 0 -3.14113,3.18749 8.9999999,8.9999999 0 0 0 3.19516,12.2322 l 0.49945,-0.86507 a 7.9999998,7.9999998 0 0 1 -2.87921,-10.89636 7.9999998,7.9999998 0 0 1 2.79445,-2.84643 z"
         style="opacity:1;fill:#3c9aff;fill-opacity:1;stroke:none;stroke-width:1.31365633;stroke-linecap:round;stroke-linejoin:miter;stroke-miterlimit:4;stroke-dasharray:none;stroke-dashoffset:53.70708847;stroke-opacity:1;paint-order:normal" />
      <path
         inkscape:connector-curvature="0"
         id="path4346-8-1"
         d="m 108.85687,237.63512 0.52578,0.91041 a 8.9999999,8.9999999 0 0 0 3.46047,-3.37785 8.9999999,8.9999999 0 0 0 -3.29422,-12.29418 8.9999999,8.9999999 0 0 0 -0.10399,-0.0535 l -0.49816,0.86284 a 7.9999998,7.9999998 0 0 1 0.0516,0.0274 7.9999998,7.9999998 0 0 1 2.92821,10.92824 7.9999998,7.9999998 0 0 1 -3.0697,2.9966 z"
         style="opacity:1;fill:#007afe;fill-opacity:1;stroke:none;stroke-width:1.31365633;stroke-linecap:round;stroke-linejoin:miter;stroke-miterlimit:4;stroke-dasharray:none;stroke-dashoffset:53.70708847;stroke-opacity:1;paint-order:normal" />
      <path
         inkscape:connector-curvature="0"
         id="path4694"
         d="m 128.36998,224.68948 a 6.9999999,6.9999999 0 0 0 -2.47543,2.49955 6.9999999,6.9999999 0 0 0 2.51268,9.53131 l 0.4992,-0.86463 a 5.9999998,5.9999998 0 0 1 -2.19647,-8.19591 5.9999998,5.9999998 0 0 1 2.13084,-2.15489 z"
         style="opacity:1;fill:#3c9aff;fill-opacity:1;stroke:none;stroke-width:1.31365633;stroke-linecap:round;stroke-linejoin:miter;stroke-miterlimit:4;stroke-dasharray:none;stroke-dashoffset:53.70708847;stroke-opacity:1;paint-order:normal" />
      <path
         inkscape:connector-curvature="0"
         id="path4712"
         d="m 129.35716,226.39855 a 5,5 0 0 0 -1.81042,1.81179 5,5 0 0 0 1.83046,6.82997 l 0.501,-0.86776 a 3.9999999,3.9999999 0 0 1 -0.0516,-0.0274 3.9999999,3.9999999 0 0 1 -1.46446,-5.46403 3.9999999,3.9999999 0 0 1 1.46857,-1.46257 z"
         style="opacity:1;fill:#3c9aff;fill-opacity:1;stroke:none;stroke-width:1.31365633;stroke-linecap:round;stroke-linejoin:miter;stroke-miterlimit:4;stroke-dasharray:none;stroke-dashoffset:53.70708847;stroke-opacity:1;paint-order:normal" />
      <path
         inkscape:connector-curvature="0"
         id="path4346-4"
         d="m 106.83921,234.14007 0.52405,0.90822 a 5,5 0 0 0 1.85598,-1.838 5,5 0 0 0 -1.82976,-6.83015 l -0.50152,0.86865 a 3.9999999,3.9999999 0 0 1 1.41474,5.43234 3.9999999,3.9999999 0 0 1 -1.46349,1.45894 z"
         style="opacity:1;fill:#007afe;fill-opacity:1;stroke:none;stroke-width:1.31365633;stroke-linecap:round;stroke-linejoin:miter;stroke-miterlimit:4;stroke-dasharray:none;stroke-dashoffset:53.70708847;stroke-opacity:1;paint-order:normal" />
      <path
         inkscape:connector-curvature="0"
         id="path4658"
         d="m 131.36771,229.88113 a 1,1 0 0 0 -0.27661,0.30753 1,1 0 0 0 0.31698,1.33405 l 0.45372,-0.78586 z"
         style="opacity:1;fill:#3c9aff;fill-opacity:1;stroke:none;stroke-width:1.31365633;stroke-linecap:round;stroke-linejoin:miter;stroke-miterlimit:4;stroke-dasharray:none;stroke-dashoffset:53.70708847;stroke-opacity:1;paint-order:normal" />
      <path
         inkscape:connector-curvature="0"
         id="path4346-0-63"
         d="m 104.87413,230.73685 0.49932,0.8653 a 1,1 0 0 0 0.46193,-0.41356 1,1 0 0 0 -0.366,-1.36594 1,1 0 0 0 -0.0516,-0.0274 z"
         style="opacity:1;fill:#007afe;fill-opacity:1;stroke:none;stroke-width:1.31365633;stroke-linecap:round;stroke-linejoin:miter;stroke-miterlimit:4;stroke-dasharray:none;stroke-dashoffset:53.70708847;stroke-opacity:1;paint-order:normal" />
      <path
         inkscape:connector-curvature="0"
         id="path4676"
         d="m 130.34491,228.10973 a 3,3 0 0 0 -1.14574,1.12148 3,3 0 0 0 1.09846,4.09808 3,3 0 0 0 0.0521,0.0265 l 0.49945,-0.86508 a 1.9999999,1.9999999 0 0 1 -0.0521,-0.0277 1.9999999,1.9999999 0 0 1 -0.732,-2.73188 1.9999999,1.9999999 0 0 1 0.77996,-0.75564 z"
         style="opacity:1;fill:#3c9aff;fill-opacity:1;stroke:none;stroke-width:1.31365633;stroke-linecap:round;stroke-linejoin:miter;stroke-miterlimit:4;stroke-dasharray:none;stroke-dashoffset:53.70708847;stroke-opacity:1;paint-order:normal" />
      <path
         inkscape:connector-curvature="0"
         id="path4346-8-64"
         d="m 105.85457,232.43486 0.49804,0.86337 a 3,3 0 0 0 1.05518,-1.06695 3,3 0 0 0 -1.04848,-4.06684 l -0.50048,0.86687 a 1.9999999,1.9999999 0 0 1 0.68254,2.69974 1.9999999,1.9999999 0 0 1 -0.6868,0.70381 z"
         style="opacity:1;fill:#007afe;fill-opacity:1;stroke:none;stroke-width:1.31365633;stroke-linecap:round;stroke-linejoin:miter;stroke-miterlimit:4;stroke-dasharray:none;stroke-dashoffset:53.70708847;stroke-opacity:1;paint-order:normal" />
      <path
         inkscape:connector-curvature="0"
         id="path4346-43"
         d="m 107.84813,235.88795 0.5247,0.90918 a 6.9999999,6.9999999 0 0 0 2.65857,-2.60801 6.9999999,6.9999999 0 0 0 -2.56221,-9.5623 6.9999999,6.9999999 0 0 0 -0.0521,-0.0265 l -0.49842,0.86329 a 5.9999998,5.9999998 0 0 1 2.19621,8.19636 5.9999998,5.9999998 0 0 1 -2.26673,2.228 z"
         style="opacity:1;fill:#007afe;fill-opacity:1;stroke:none;stroke-width:1.31365633;stroke-linecap:round;stroke-linejoin:miter;stroke-miterlimit:4;stroke-dasharray:none;stroke-dashoffset:53.70708847;stroke-opacity:1;paint-order:normal" />
    </g>
  </g>
</svg>
